<svg width="312" height="312" viewBox="0 0 312 312" fill="none" xmlns="http://www.w3.org/2000/svg">
<path d="M48.6416 65.9471L0.378997 114.212L74.8077 188.774L0 263.714L48.1115 312L123.07 237.038L197.622 311.465L245.885 263.2L48.6416 65.9471Z" fill="black"/>
<path opacity="0.5" d="M171.462 188.774L123.07 237.038L197.623 311.465L245.885 263.2L171.462 188.774Z" fill="black"/>
<path opacity="0.25" d="M171.462 188.774L123.07 237.038L190.068 207.38L171.462 188.774Z" fill="black"/>
<path fill-rule="evenodd" clip-rule="evenodd" d="M237.041 123.076L311.999 48.1138L263.715 0L188.778 74.8112L114.22 0.379023L65.9576 48.6439L263.201 245.897L311.464 197.632L237.041 123.076Z" fill="black"/>
<path opacity="0.5" d="M140.386 123.076L188.778 74.8113L114.22 0.379028L65.9576 48.6439L140.386 123.076Z" fill="black"/>
<path opacity="0.25" d="M140.318 123.138L188.711 74.8733L121.713 104.531L140.318 123.138Z" fill="black"/>
</svg>
