<svg width="1148" height="212" viewBox="0 0 1148 212" fill="none" xmlns="http://www.w3.org/2000/svg">
<path d="M489.006 53.2898V166.658H460.572V152.825C453.444 163.18 440.583 169.285 424.545 169.285C391.54 169.285 372.248 142.856 372.248 110.013C372.248 77.0917 391.54 50.7396 424.545 50.7396C440.583 50.7396 453.367 56.7674 460.572 67.2V53.3671H489.006V53.2898ZM431.053 77.7872C413.931 77.7872 403.084 91.6202 403.084 110.013C403.084 128.405 413.931 142.238 431.053 142.238C448.176 142.238 459.023 128.405 459.023 110.013C459.1 91.6202 448.253 77.7872 431.053 77.7872Z" fill="black"/>
<path d="M530.89 205H500.054V53.3671H528.488V67.2C535.616 56.8447 548.477 50.7396 564.515 50.7396C597.52 50.7396 616.812 77.169 616.812 110.013C616.812 142.933 597.52 169.285 564.515 169.285C548.477 169.285 536.778 162.33 530.89 154.602V205ZM558.007 142.238C575.129 142.238 585.976 128.405 585.976 110.013C585.976 91.6202 575.129 77.7872 558.007 77.7872C540.884 77.7872 530.038 91.6202 530.038 110.013C529.96 128.405 540.807 142.238 558.007 142.238Z" fill="black"/>
<path d="M739.87 53.2898V166.658H711.436V152.825C704.308 163.18 691.447 169.285 675.409 169.285C642.404 169.285 623.112 142.856 623.112 110.013C623.112 77.0917 642.404 50.7396 675.409 50.7396C691.447 50.7396 704.231 56.7674 711.436 67.2V53.3671H739.87V53.2898ZM681.917 77.7872C664.795 77.7872 653.948 91.6202 653.948 110.013C653.948 128.405 664.795 142.238 681.917 142.238C699.04 142.238 709.887 128.405 709.887 110.013C709.964 91.6202 699.117 77.7872 681.917 77.7872Z" fill="black"/>
<path d="M334.969 125.047C331.304 134.904 322.156 140.374 310.853 140.374C294.078 140.374 280.923 126.781 280.923 110.013C280.923 93.2441 294.078 79.6507 310.853 79.6507C322.157 79.6507 331.023 84.4713 334.97 94.9795H365.948C360.817 68.0348 338.406 50.7396 310.853 50.7396C278.104 50.7396 252 77.277 252 110.013C252 142.748 278.104 169.285 310.853 169.285C338.405 169.285 362.223 149.936 365.948 125.047H334.969Z" fill="black"/>
<path d="M829.14 125.047C825.474 134.904 816.327 140.374 805.024 140.374C788.248 140.374 775.094 126.781 775.094 110.013C775.094 93.2441 788.248 79.6507 805.024 79.6507C816.328 79.6507 825.193 84.4713 829.141 94.9795H860.119C854.988 68.0348 832.577 50.7396 805.024 50.7396C772.275 50.7396 746.171 77.277 746.171 110.013C746.171 142.748 772.275 169.285 805.024 169.285C832.576 169.285 856.393 149.936 860.118 125.047H829.14Z" fill="black"/>
<path d="M863.728 25.6242C863.728 14.8052 871.553 7 882.4 7C893.247 7 901.072 14.8052 901.072 25.6242C901.072 36.4433 893.247 44.0166 882.4 44.0166C871.553 44.0166 863.728 36.4433 863.728 25.6242ZM866.982 53.2901H897.818V166.658H866.982V53.2901Z" fill="black"/>
<path d="M909.372 53.2898V25.1603H940.208V53.2898H963.916V78.3282H940.208V166.735H909.372V77.5554" fill="black"/>
<path fill-rule="evenodd" clip-rule="evenodd" d="M1018.81 140.373C1035.58 140.373 1049.18 126.78 1049.18 110.013C1049.18 93.2448 1035.58 79.6518 1018.81 79.6518C1002.03 79.6518 988.433 93.2448 988.433 110.013C988.433 126.78 1002.03 140.373 1018.81 140.373ZM1018.81 169.285C1051.56 169.285 1078.1 142.748 1078.1 110.013C1078.1 77.277 1051.56 50.7396 1018.81 50.7396C986.057 50.7396 959.508 77.277 959.508 110.013C959.508 142.748 986.057 169.285 1018.81 169.285Z" fill="black"/>
<path d="M1148 81.265C1148 81.265 1144.78 80.6468 1142.03 80.6468C1124.25 80.6468 1114.99 89.5338 1114.99 110.322V166.813H1084.5V53.29H1112.61V67.973C1116.67 61.2498 1125.25 52.2081 1144.32 52.2081C1145.4 52.2081 1148 52.44 1148 52.44V81.265Z" fill="black"/>
<path d="M33.0112 44.8102L0.257211 77.6056L50.7692 128.269L0 179.191L32.6515 212L83.5229 161.064L134.119 211.636L166.873 178.841L33.0112 44.8102Z" fill="#53B9FF"/>
<path d="M116.365 128.269L83.5229 161.064L134.119 211.636L166.873 178.841L116.365 128.269Z" fill="#119EFF"/>
<path d="M116.365 128.269L83.5229 161.064L96.1651 173.636L116.365 128.269Z" fill="black" fill-opacity="0.2"/>
<path fill-rule="evenodd" clip-rule="evenodd" d="M161.129 83.6284L212 32.6927L179.232 0L128.375 50.8333L77.775 0.257541L45.0211 33.0529L178.883 167.084L211.637 134.288L161.129 83.6284Z" fill="#53B9FF"/>
<path d="M95.5328 83.6284L128.375 50.8333L77.775 0.257507L45.0211 33.0529L95.5328 83.6284Z" fill="#119EFF"/>
<path d="M95.5327 83.6284L128.375 50.8333L115.729 38.2575L95.5327 83.6284Z" fill="black" fill-opacity="0.2"/>
</svg>
