<svg width="312" height="312" viewBox="0 0 312 312" fill="none" xmlns="http://www.w3.org/2000/svg">
<path d="M48.6416 65.9471L0.378997 114.212L74.8077 188.774L0 263.714L48.1115 312L123.07 237.038L197.622 311.465L245.885 263.2L48.6416 65.9471Z" fill="white"/>
<path d="M171.462 188.774L123.07 237.038L197.623 311.465L245.885 263.2L171.462 188.774Z" fill="black" fill-opacity="0.08"/>
<path d="M171.462 188.774L123.07 237.038L141.698 255.54L171.462 188.774Z" fill="black" fill-opacity="0.2"/>
<path fill-rule="evenodd" clip-rule="evenodd" d="M237.041 123.076L311.999 48.1138L263.715 0L188.778 74.8112L114.22 0.379023L65.9576 48.6439L263.201 245.897L311.464 197.632L237.041 123.076Z" fill="white"/>
<path d="M140.386 123.076L188.778 74.8112L114.22 0.378967L65.9576 48.6438L140.386 123.076Z" fill="black" fill-opacity="0.08"/>
<path d="M140.386 123.076L188.778 74.8112L170.145 56.3035L140.386 123.076Z" fill="black" fill-opacity="0.2"/>
</svg>
