<svg width="312" height="312" viewBox="0 0 312 312" fill="none" xmlns="http://www.w3.org/2000/svg">
<path d="M48.5825 65.9471L0.378536 114.212L74.7169 188.774L0 263.714L48.0531 312L122.92 237.038L197.383 311.465L245.587 263.2L48.5825 65.9471Z" fill="#53B9FF"/>
<path d="M171.254 188.774L122.921 237.038L197.383 311.465L245.587 263.2L171.254 188.774Z" fill="#119EFF"/>
<path d="M171.254 188.774L122.921 237.038L141.526 255.54L171.254 188.774Z" fill="black" fill-opacity="0.2"/>
<path fill-rule="evenodd" clip-rule="evenodd" d="M237.133 123.076L312 48.1138L263.775 0L188.929 74.8112L114.461 0.379023L66.2574 48.6439L263.261 245.897L311.465 197.632L237.133 123.076Z" fill="#53B9FF"/>
<path d="M140.595 123.076L188.929 74.8112L114.461 0.378967L66.2575 48.6438L140.595 123.076Z" fill="#119EFF"/>
<path d="M140.595 123.076L188.929 74.8112L170.318 56.3035L140.595 123.076Z" fill="black" fill-opacity="0.2"/>
</svg>
